# File produced by Open Asset Import Library (http://www.assimp.sf.net)
# (assimp v3.1.193236683)

mtllib PaintingNormals.mtl

# 40 vertex positions
v  -0.475 -0.5 0.475
v  -0.5 -0.5 0.45
v  -0.5 -0.5 -0.45
v  -0.45 -0.5 0.5
v  -0.475 -0.5 -0.475
v  -0.45 -0.5 -0.5
v  0.45 -0.5 -0.5
v  0.475 -0.5 -0.475
v  0.5 -0.5 -0.45
v  0.5 -0.5 0.45
v  0.475 -0.5 0.475
v  0.45 -0.5 0.5
v  0.45 0.5 0.45
v  0.45 0.5 -0.45
v  -0.45 0.5 -0.45
v  -0.45 0.5 0.45
v  0.45 0.45 0.5
v  -0.45 0.45 0.5
v  0.5 0.45 -0.45
v  0.5 0.45 0.45
v  -0.45 0.45 -0.5
v  0.45 0.45 -0.5
v  -0.5 0.45 0.45
v  -0.5 0.45 -0.45
v  -0.475 0.475 0.45
v  -0.466667 0.466667 0.466667
v  -0.45 0.475 0.475
v  0.45 0.475 0.475
v  0.466667 0.466667 0.466667
v  0.475 0.475 0.45
v  0.475 0.475 -0.45
v  0.466667 0.466667 -0.466667
v  0.45 0.475 -0.475
v  -0.45 0.475 -0.475
v  -0.466667 0.466667 -0.466667
v  -0.475 0.475 -0.45
v  0.475 0.45 0.475
v  -0.475 0.45 0.475
v  0.475 0.45 -0.475
v  -0.475 0.45 -0.475

# 88 UV coordinates
vt 0.0088788 0.411986 0
vt 0.000499949 0.403607 0
vt 0.000499994 0.10197 0
vt 0.0172576 0.420365 0
vt 0.00887883 0.0935908 0
vt 0.0172577 0.085212 0
vt 0.318895 0.085212 0
vt 0.327274 0.0935909 0
vt 0.335653 0.10197 0
vt 0.335653 0.403607 0
vt 0.327274 0.411986 0
vt 0.318895 0.420365 0
vt 0.686012 0.65687 0
vt 0.686012 0.355232 0
vt 0.98765 0.355232 0
vt 0.98765 0.65687 0
vt 0.97617 0.334409 0
vt 0.657775 0.334409 0
vt 0.657775 0.0327712 0
vt 0.97617 0.0327712 0
vt 0.669593 0.673257 0
vt 0.351198 0.673257 0
vt 0.351198 0.371619 0
vt 0.669593 0.371619 0
vt 0.330745 0.725698 0
vt 0.0123498 0.725698 0
vt 0.0123498 0.42406 0
vt 0.330745 0.42406 0
vt 0.343382 0.363017 0
vt 0.343382 0.0446211 0
vt 0.64502 0.0446211 0
vt 0.64502 0.363017 0
vt 0.0045339 0.0123558 0
vt 0.0147948 0.00642881 0
vt 0.0182165 0.0123528 0
vt 0.0147968 0.0182778 0
vt 0.347416 0.012345 0
vt 0.357679 0.00642318 0
vt 0.361099 0.0123481 0
vt 0.357677 0.018272 0
vt 0.000499964 0.0688306 0
vt 0.0107609 0.0629036 0
vt 0.0141826 0.0688276 0
vt 0.0107629 0.0747526 0
vt 0.000499979 0.0405824 0
vt 0.0107629 0.0346605 0
vt 0.0141827 0.0405855 0
vt 0.0107608 0.0465094 0
vt 0.367941 0.000500001 0
vt 0.36794 0.0123502 0
vt 0.0250588 0.0242009 0
vt 0.0250577 0.0123506 0
vt 0.0210225 0.0569753 0
vt 0.0210238 0.0688254 0
vt 0.367938 0.0242005 0
vt 0.0210248 0.0287373 0
vt 0.0210238 0.0405876 0
vt 0.0210249 0.0806757 0
vt 0.0250564 0.000500545 0
vt 0.0210224 0.0524378 0
vt 0.98765 0.66872 0
vt 0.686013 0.66872 0
vt 0.674162 0.656869 0
vt 0.674162 0.355232 0
vt 0.686013 0.343382 0
vt 0.98765 0.343382 0
vt 0.9995 0.355232 0
vt 0.9995 0.656869 0
vt 0.686335 0.00050345 0
vt 0.686335 0.0123523 0
vt 0.645925 0.334409 0
vt 0.645925 0.0327712 0
vt 0.343453 0.0241976 0
vt 0.343453 0.0123488 0
vt 0.339418 0.0569747 0
vt 0.339419 0.0688234 0
vt 0.339348 0.673257 0
vt 0.339348 0.371619 0
vt 0.686334 0.0242011 0
vt 0.339419 0.0287407 0
vt 0.339419 0.0405896 0
vt 0.000499994 0.725698 0
vt 0.000500023 0.42406 0
vt 0.339419 0.0806722 0
vt 0.343452 0.000500001 0
vt 0.343382 0.0327713 0
vt 0.64502 0.0327713 0
vt 0.339418 0.0524384 0

# 54 vertex normals
vn 0 -1 -6.12323e-17
vn 0 1 6.12323e-17
vn 0 -6.12323e-17 1
vn 1 0 0
vn 0 6.12323e-17 -1
vn -1 0 0
vn -0.57735 0.577351 0.57735
vn -0.577351 0.577351 0.57735
vn -0.57735 0.57735 0.57735
vn -0.57735 0.577351 0.577351
vn 0.57735 0.577351 0.57735
vn 0.57735 0.577351 0.577351
vn 0.57735 0.57735 0.57735
vn 0.577351 0.577351 0.57735
vn 0.57735 0.577351 -0.57735
vn 0.577351 0.577351 -0.57735
vn 0.57735 0.57735 -0.57735
vn 0.57735 0.577351 -0.577351
vn -0.57735 0.577351 -0.57735
vn -0.57735 0.577351 -0.577351
vn -0.57735 0.57735 -0.57735
vn -0.577351 0.577351 -0.57735
vn 0.57735 0.57735 0.577351
vn 0.577351 0.577349 0.577351
vn -0.57735 0.57735 0.577351
vn -0.577351 0.577349 0.577351
vn 0.577351 0.57735 -0.57735
vn 0.577351 0.577349 -0.577351
vn 0.577351 0.57735 0.57735
vn -0.57735 0.57735 -0.577351
vn -0.577351 0.577349 -0.577351
vn 0.57735 0.57735 -0.577351
vn -0.577351 0.57735 0.57735
vn -0.577351 0.57735 -0.57735
vn 0 0.707107 0.707106
vn 0 0.707107 0.707106
vn 0 0.707107 0.707107
vn 0.707106 0.707107 4.32978e-17
vn 0.707106 0.707107 4.32978e-17
vn 0.707107 0.707107 4.32978e-17
vn 0 0.707107 -0.707106
vn 0 0.707107 -0.707106
vn 0 0.707107 -0.707107
vn -0.707106 0.707107 4.32978e-17
vn -0.707106 0.707107 4.32978e-17
vn -0.707107 0.707107 4.32978e-17
vn 0.707107 -4.32978e-17 0.707107
vn 0 0.707106 0.707107
vn -0.707107 -4.32978e-17 0.707107
vn 0.707107 4.32978e-17 -0.707107
vn 0.707107 0.707106 4.32978e-17
vn -0.707107 4.32978e-17 -0.707107
vn 0 0.707106 -0.707107
vn -0.707107 0.707106 4.32978e-17

# Mesh 'Box001_Box001' with 76 faces
g Box001_Box001
usemtl Cubo
f  1/1/1 2/2/1 3/3/1
f  4/4/1 1/1/1 3/3/1
f  5/5/1 6/6/1 7/7/1
f  3/3/1 5/5/1 7/7/1
f  8/8/1 9/9/1 10/10/1
f  7/7/1 8/8/1 10/10/1
f  3/3/1 7/7/1 10/10/1
f  4/4/1 3/3/1 10/10/1
f  4/4/1 10/10/1 11/11/1
f  4/4/1 11/11/1 12/12/1
f  13/13/2 14/14/2 15/15/2
f  15/15/2 16/16/2 13/13/2
f  12/17/3 17/18/3 18/19/3
f  18/19/3 4/20/3 12/17/3
f  9/21/4 19/22/4 20/23/4
f  20/23/4 10/24/4 9/21/4
f  6/25/5 21/26/5 22/27/5
f  22/27/5 7/28/5 6/25/5
f  2/29/6 23/30/6 24/31/6
f  24/31/6 3/32/6 2/29/6
f  16/33/7 25/34/8 26/35/9
f  26/35/9 27/36/10 16/33/7
f  13/37/11 28/38/12 29/39/13
f  29/39/13 30/40/14 13/37/11
f  14/41/15 31/42/16 32/43/17
f  32/43/17 33/44/18 14/41/15
f  15/45/19 34/46/20 35/47/21
f  35/47/21 36/48/22 15/45/19
f  17/49/23 37/50/24 29/39/13
f  29/39/13 28/38/12 17/49/23
f  18/51/25 27/36/10 26/35/9
f  26/35/9 38/52/26 18/51/25
f  19/53/27 39/54/28 32/43/17
f  32/43/17 31/42/16 19/53/27
f  20/55/29 30/40/14 29/39/13
f  29/39/13 37/50/24 20/55/29
f  21/56/30 40/57/31 35/47/21
f  35/47/21 34/46/20 21/56/30
f  22/58/32 33/44/18 32/43/17
f  32/43/17 39/54/28 22/58/32
f  23/59/33 38/52/26 26/35/9
f  26/35/9 25/34/8 23/59/33
f  24/60/34 36/48/22 35/47/21
f  35/47/21 40/57/31 24/60/34
f  13/13/35 16/16/36 27/61/37
f  27/61/37 28/62/37 13/13/35
f  14/14/38 13/13/39 30/63/40
f  30/63/40 31/64/40 14/14/38
f  15/15/41 14/14/42 33/65/43
f  33/65/43 34/66/43 15/15/41
f  16/16/44 15/15/45 36/67/46
f  36/67/46 25/68/46 16/16/44
f  17/49/47 12/69/47 11/70/47
f  11/70/47 37/50/47 17/49/47
f  18/19/48 17/18/48 28/71/37
f  28/71/37 27/72/37 18/19/48
f  4/73/49 18/51/49 38/52/49
f  38/52/49 1/74/49 4/73/49
f  19/53/50 9/75/50 8/76/50
f  8/76/50 39/54/50 19/53/50
f  20/23/51 19/22/51 31/77/40
f  31/77/40 30/78/40 20/23/51
f  10/79/47 20/55/47 37/50/47
f  37/50/47 11/70/47 10/79/47
f  21/56/52 6/80/52 5/81/52
f  5/81/52 40/57/52 21/56/52
f  22/27/53 21/26/53 34/82/43
f  34/82/43 33/83/43 22/27/53
f  7/84/50 22/58/50 39/54/50
f  39/54/50 8/76/50 7/84/50
f  23/59/49 2/85/49 1/74/49
f  1/74/49 38/52/49 23/59/49
f  24/31/54 23/30/54 25/86/46
f  25/86/46 36/87/46 24/31/54
f  3/88/52 24/60/52 40/57/52
f  40/57/52 5/81/52 3/88/52

